<?xml version="1.0" standalone="no"?>
<!DOCTYPE svg PUBLIC "-//W3C//DTD SVG 20010904//EN"
 "http://www.w3.org/TR/2001/REC-SVG-20010904/DTD/svg10.dtd">
<svg version="1.0" xmlns="http://www.w3.org/2000/svg"
 width="1400.000000pt" height="1400.000000pt" viewBox="0 0 1400.000000 1400.000000"
 preserveAspectRatio="xMidYMid meet">
<metadata>
Created by potrace 1.11, written by Peter Selinger 2001-2013
</metadata>
<g transform="translate(0.000000,1400.000000) scale(0.100000,-0.100000)"
fill="#000000" stroke="none">
<path d="M6699 13785 c-3 -2 -40 -5 -83 -6 -54 -1 -79 -6 -83 -15 -6 -17 -10
-674 -3 -674 3 0 29 42 59 93 157 267 343 435 589 531 l58 23 -1 -68 c-1 -38
-3 -70 -5 -71 -3 -2 -38 -19 -78 -38 -235 -111 -416 -315 -518 -586 -29 -78
-70 -237 -80 -309 -3 -27 -8 -52 -9 -55 -14 -23 -18 -304 -17 -1355 0 -665 1
-1232 1 -1258 l1 -48 33 5 c32 5 96 13 172 21 22 2 90 7 150 10 61 3 126 11
145 17 58 17 152 74 199 119 119 115 199 320 226 585 4 38 9 78 11 89 15 76
26 2957 12 2971 -4 3 -19 8 -35 10 -38 7 -738 15 -744 9z"/>
<path d="M6248 13750 c-104 -13 -153 -19 -288 -40 -159 -25 -169 -27 -305 -54
-17 -4 -179 -40 -225 -51 -236 -54 -534 -146 -790 -242 -168 -63 -448 -182
-455 -193 -4 -6 158 -301 184 -335 5 -5 22 -35 38 -65 17 -30 111 -194 210
-365 99 -170 195 -337 213 -370 18 -33 50 -89 72 -124 21 -34 38 -65 38 -67 0
-2 16 -28 35 -58 19 -30 35 -57 35 -60 0 -2 19 -37 43 -78 24 -40 55 -93 69
-118 44 -78 318 -553 352 -610 78 -129 215 -397 259 -505 28 -70 73 -206 81
-250 4 -16 9 -41 12 -55 7 -32 6 -170 -2 -216 -3 -20 -14 -64 -25 -97 -10 -33
-19 -63 -19 -68 0 -4 42 10 93 32 101 43 330 118 445 145 l72 17 1 126 c0 160
0 2449 0 3169 l-1 542 -37 -1 c-21 -1 -68 -5 -105 -9z"/>
<path d="M7611 12314 c-1 -797 -3 -1465 -5 -1484 -3 -19 -7 -71 -11 -115 -26
-333 -112 -557 -265 -685 -27 -23 -50 -45 -50 -49 0 -5 28 -11 63 -14 161 -17
491 -87 549 -117 17 -9 16 -11 308 495 32 55 89 154 127 220 39 66 157 271
263 455 106 184 265 459 353 610 88 151 169 293 181 315 18 33 143 248 232
402 11 17 48 83 84 145 35 62 71 125 80 139 12 22 169 293 244 422 10 17 29
51 43 74 l25 43 -44 19 c-23 10 -83 37 -133 58 -322 143 -862 318 -1180 383
-22 4 -85 17 -140 28 -208 43 -475 83 -647 98 l-77 6 0 -1448z"/>
<path d="M3970 13072 c-104 -53 -243 -128 -319 -174 -34 -21 -64 -38 -66 -38
-5 0 -158 -95 -262 -162 -51 -33 -91 -63 -89 -67 2 -3 57 -98 122 -211 65
-113 138 -240 162 -283 24 -42 48 -80 53 -83 5 -3 9 45 10 108 0 62 2 120 3
128 2 8 6 43 10 76 8 77 39 196 73 280 24 61 109 205 146 249 9 11 23 29 31
40 17 23 15 25 54 -44 l30 -54 -49 -72 c-253 -371 -226 -858 77 -1385 67 -117
448 -778 508 -881 12 -20 117 -202 234 -405 117 -203 217 -376 222 -384 5 -8
41 -71 81 -140 39 -69 85 -146 100 -173 16 -26 29 -52 29 -57 0 -20 23 -9 98
49 42 32 120 86 172 119 52 34 108 72 124 84 31 26 92 113 119 172 87 189 41
458 -140 822 -59 118 -81 158 -153 284 -21 36 -47 82 -59 103 -11 20 -29 52
-40 70 -23 40 -127 220 -153 267 -32 56 -56 98 -231 401 -90 157 -175 305
-189 330 -87 154 -303 529 -319 551 -10 15 -19 29 -19 31 0 4 -241 417 -271
465 -7 12 -16 22 -19 22 -3 0 -39 -17 -80 -38z"/>
<path d="M9909 13038 c-23 -40 -63 -109 -89 -153 -26 -44 -62 -107 -80 -140
-18 -33 -55 -96 -81 -140 -26 -43 -46 -81 -44 -83 2 -2 30 11 62 29 259 146
436 198 651 194 103 -2 201 -11 210 -20 2 -2 -11 -28 -28 -58 l-31 -55 -122 3
c-185 4 -302 -17 -452 -85 -161 -72 -343 -219 -474 -380 -20 -25 -43 -53 -53
-63 -50 -56 -171 -256 -412 -682 -37 -64 -210 -365 -329 -570 -61 -104 -121
-210 -135 -235 -14 -25 -28 -49 -32 -55 -6 -8 -208 -358 -260 -450 -9 -17 -49
-86 -89 -154 -39 -68 -73 -128 -74 -133 -1 -5 35 -25 79 -43 45 -19 141 -64
214 -101 72 -36 144 -68 158 -71 15 -3 70 -6 122 -6 83 0 105 4 176 32 177 69
345 237 546 546 47 72 98 153 114 182 34 61 110 191 344 593 197 338 351 605
504 870 58 102 110 192 115 200 38 62 347 606 349 616 2 7 -18 27 -45 45 -26
18 -50 35 -53 39 -24 28 -687 400 -714 400 -3 0 -24 -33 -47 -72z"/>
<path d="M2980 12457 c-293 -221 -472 -377 -735 -641 -235 -236 -261 -264
-409 -441 -113 -134 -341 -434 -335 -439 8 -7 86 -54 129 -78 25 -14 281 -161
570 -328 289 -167 536 -310 550 -317 14 -8 41 -23 60 -35 30 -17 110 -64 466
-269 23 -13 90 -52 150 -87 60 -35 116 -67 124 -72 8 -4 46 -27 83 -49 38 -23
70 -41 72 -41 21 0 392 -237 500 -319 227 -172 359 -349 382 -508 13 -93 9
-94 120 45 56 70 154 179 217 242 l115 116 -46 79 c-25 44 -57 100 -71 125
-13 25 -28 50 -32 55 -4 6 -21 35 -38 65 -17 30 -91 160 -166 289 -75 128
-136 235 -136 237 0 1 -22 39 -50 84 -28 45 -50 83 -50 85 0 3 -36 66 -123
215 -11 19 -30 51 -41 72 -12 20 -43 74 -70 120 -26 45 -57 99 -68 118 -11 19
-87 150 -167 290 -81 140 -164 284 -185 320 -20 36 -41 72 -46 80 -23 37 -130
222 -130 225 0 2 -17 32 -38 66 -22 35 -50 84 -64 109 -43 77 -226 394 -339
590 -66 113 -46 113 -199 -3z"/>
<path d="M10860 12513 c-26 -43 -247 -427 -264 -458 -6 -11 -19 -31 -27 -45
-9 -14 -97 -164 -194 -335 -98 -170 -218 -378 -266 -462 -94 -161 -97 -167
-181 -313 -30 -52 -115 -198 -188 -325 -73 -126 -148 -256 -167 -289 -56 -99
-104 -176 -185 -296 -220 -330 -391 -476 -608 -521 -77 -16 -89 -24 -60 -39
13 -7 29 -17 34 -21 148 -117 211 -173 311 -271 66 -65 121 -118 124 -118 2 0
110 62 240 137 130 75 319 185 421 244 102 59 201 116 220 128 19 11 41 24 49
28 8 3 90 51 183 105 93 54 172 98 175 98 4 0 14 6 22 14 9 7 42 28 74 45 32
18 111 63 175 100 64 38 209 121 322 186 113 65 261 150 330 190 69 40 184
106 255 147 72 41 175 101 230 133 55 32 188 109 295 170 107 62 225 130 263
152 l67 39 -61 85 c-34 46 -66 85 -70 87 -5 2 -9 10 -9 17 0 7 -3 15 -8 17 -4
2 -31 35 -61 73 -59 76 -188 232 -232 280 -15 17 -49 55 -76 85 -61 69 -357
366 -444 445 -218 199 -626 525 -657 525 -5 0 -20 -17 -32 -37z"/>
<path d="M1357 10732 c-109 -164 -244 -399 -382 -665 l-30 -58 25 -19 c14 -10
94 -59 179 -107 84 -48 170 -98 190 -109 116 -69 196 -113 198 -110 2 2 -13
32 -33 67 -91 161 -164 341 -179 444 -3 23 -8 52 -10 65 -16 76 2 350 22 350
3 0 29 -14 59 -32 l53 -32 -5 -56 c-33 -321 78 -608 335 -870 188 -191 161
-174 1281 -820 173 -100 419 -242 545 -315 127 -73 246 -142 265 -153 19 -10
89 -51 155 -89 66 -38 145 -84 176 -101 l56 -32 43 103 c23 56 69 152 101 213
77 150 90 235 55 392 -28 126 -178 314 -361 452 -33 25 -62 47 -65 51 -19 20
-264 173 -470 291 -52 31 -151 88 -220 128 -68 40 -138 81 -155 90 -104 60
-240 139 -300 175 -66 40 -103 60 -212 121 -27 15 -52 30 -58 34 -13 10 -666
387 -935 540 -80 45 -170 97 -202 115 l-56 33 -65 -96z"/>
<path d="M12410 10725 c-96 -56 -228 -132 -293 -169 -65 -38 -116 -71 -113
-73 2 -2 67 -6 143 -8 219 -6 380 -44 539 -129 76 -41 195 -123 209 -145 3 -5
-20 -24 -50 -41 l-56 -32 -57 40 c-117 82 -263 142 -402 167 -73 14 -315 14
-370 1 -13 -3 -42 -8 -65 -12 -59 -8 -323 -97 -402 -135 -37 -18 -104 -54
-148 -79 -44 -26 -172 -100 -285 -165 -341 -196 -504 -290 -780 -450 -113 -65
-302 -175 -420 -243 -118 -68 -240 -138 -270 -155 -30 -17 -79 -45 -108 -64
-29 -18 -54 -33 -56 -33 -11 0 -146 -83 -146 -90 0 -4 21 -34 48 -67 26 -33
79 -109 117 -168 85 -132 154 -204 234 -245 174 -87 377 -77 663 36 110 43
314 144 424 210 44 25 88 50 99 56 11 5 37 19 57 31 21 12 142 82 270 156 128
74 247 142 263 151 27 16 171 99 270 155 115 66 523 301 680 393 99 57 200
116 225 130 25 14 116 67 203 119 88 51 162 93 165 93 4 1 20 11 35 24 l29 23
-47 94 c-92 182 -236 431 -357 615 l-73 111 -175 -102z"/>
<path d="M883 9868 c-5 -7 -35 -74 -67 -148 -32 -74 -61 -144 -66 -155 -110
-253 -301 -888 -345 -1146 -3 -19 -8 -42 -11 -52 -3 -11 -7 -29 -9 -40 -1 -12
-8 -51 -14 -87 -15 -83 -19 -103 -27 -159 -4 -25 -8 -53 -9 -61 -2 -9 -6 -43
-10 -75 -4 -33 -9 -67 -10 -76 -3 -13 -12 -110 -18 -186 -2 -17 50 -18 1382
-19 1518 -2 1660 -5 1871 -45 211 -40 342 -103 459 -220 39 -40 71 -68 72 -63
0 5 2 16 4 25 1 8 6 42 9 75 10 88 62 337 90 434 20 66 22 87 13 96 -11 10
-660 387 -777 452 -25 14 -49 28 -55 32 -5 4 -30 19 -55 32 -25 14 -160 91
-300 173 -366 212 -387 224 -468 272 -40 24 -75 43 -78 43 -2 0 -21 11 -42 23
-20 13 -57 35 -82 49 -25 14 -101 58 -170 98 -69 40 -140 81 -158 91 -18 11
-93 54 -165 96 -73 42 -146 84 -164 94 -17 10 -50 29 -72 43 -22 15 -43 26
-46 26 -2 0 -34 18 -70 40 -36 22 -68 40 -70 40 -3 0 -22 11 -43 23 -20 13
-129 77 -242 142 -113 65 -214 124 -226 132 -17 11 -23 11 -31 1z"/>
<path d="M13085 9861 c-25 -13 -124 -71 -342 -197 -105 -61 -401 -232 -432
-249 -20 -11 -47 -28 -61 -36 -14 -9 -164 -96 -335 -194 -170 -98 -406 -234
-523 -302 -117 -68 -217 -123 -222 -123 -6 0 -10 -3 -10 -7 0 -5 -10 -13 -23
-19 -12 -6 -119 -66 -237 -134 -374 -215 -638 -332 -821 -363 -73 -13 -194
-15 -244 -4 -24 6 -135 38 -152 44 -6 3 4 -33 23 -79 47 -110 127 -353 149
-454 l18 -81 1920 0 1919 0 -6 76 c-3 42 -8 87 -10 101 -3 14 -7 49 -10 78
-21 183 -85 527 -138 737 -16 66 -31 127 -33 135 -11 49 -93 315 -132 430 -71
210 -240 632 -261 652 -4 3 -20 -1 -37 -11z"/>
<path d="M443 7532 l-163 -2 -1 -53 c0 -28 -2 -63 -4 -77 -13 -88 -4 -804 10
-818 3 -3 596 -6 664 -3 17 1 -5 18 -83 65 -254 153 -403 312 -502 535 -23 53
-40 98 -39 102 3 4 54 4 116 0 9 -1 33 -35 58 -85 145 -294 412 -488 786 -570
225 -50 173 -48 1540 -48 704 0 1279 4 1278 8 -1 5 -4 41 -8 79 -4 39 -9 79
-11 90 -2 11 -7 79 -10 150 -6 145 -19 196 -70 281 -101 169 -272 260 -579
309 -138 22 -172 24 -425 31 -247 6 -2277 11 -2557 6z m1427 -114 l24 -31 -53
6 -53 6 7 -63 6 -63 -52 -7 c-29 -4 -61 -12 -71 -17 -28 -15 -22 -39 9 -39 26
0 26 0 8 -20 -16 -18 -20 -19 -27 -5 -12 20 -26 19 -31 -2 -3 -14 -7 -11 -16
11 -8 20 -9 32 -1 40 14 14 13 26 -3 20 -9 -3 -13 7 -12 36 0 43 -1 42 85 54
23 3 25 7 24 55 l-1 51 66 -1 c62 0 68 -2 91 -31z m85 6 c-16 -25 -16 -28 -1
-36 9 -5 16 -15 16 -23 0 -7 6 -16 13 -18 6 -3 2 -6 -10 -6 -24 -1 -31 -15
-13 -26 6 -3 10 -13 10 -21 0 -8 -4 -13 -8 -10 -4 2 -13 2 -19 -2 -18 -11 13
-74 47 -97 16 -11 30 -24 30 -29 0 -5 -8 -2 -18 7 -20 18 -42 22 -42 8 0 -5
-16 -5 -37 0 -21 4 -39 6 -41 4 -8 -7 37 -89 77 -142 22 -28 37 -54 34 -57
-11 -10 -55 -7 -48 4 3 6 -5 14 -19 20 -14 5 -26 13 -26 18 0 4 -15 34 -34 65
l-34 57 28 30 c34 36 48 91 51 190 1 41 4 78 6 83 2 4 16 7 30 7 25 0 25 0 8
-26z m128 6 c3 -11 2 -20 -2 -20 -5 0 -16 9 -26 20 -18 19 -17 20 2 20 12 0
23 -8 26 -20z m133 -5 c-20 -30 -20 -45 -1 -45 8 0 15 5 15 11 0 17 51 1 77
-23 18 -17 21 -28 17 -67 -5 -53 -25 -116 -43 -134 -10 -10 -12 6 -6 79 l7 91
-29 1 c-27 0 -28 -2 -30 -48 -2 -52 -30 -117 -59 -141 -10 -8 -15 -9 -11 -3 4
6 -2 19 -13 29 -25 23 -25 32 -1 40 11 3 32 22 47 42 15 20 23 33 17 30 -17
-11 -23 20 -7 34 16 13 13 31 -16 92 l-18 37 35 0 c35 0 35 0 19 -25z m204 5
c-11 -21 -44 -27 -55 -10 -8 12 -25 13 -25 2 0 -5 9 -19 20 -32 11 -13 20 -32
20 -43 0 -17 5 -19 35 -14 30 5 35 3 35 -14 0 -14 -10 -25 -30 -32 -18 -7 -30
-19 -30 -29 0 -11 -5 -15 -14 -12 -8 3 -14 19 -14 39 0 43 -11 93 -28 127 -16
31 -12 34 54 37 40 1 42 0 32 -19z m290 2 c0 -25 -43 -26 -65 -2 -18 20 -17
20 23 20 34 0 42 -4 42 -18z m-187 -29 c6 -29 41 -73 57 -73 6 0 10 16 10 35
0 39 2 40 28 24 36 -22 6 -94 -35 -86 -13 2 -23 3 -23 2 0 -2 21 -17 48 -34
54 -35 103 -76 105 -88 0 -4 -12 -10 -27 -13 -31 -5 -56 -34 -42 -47 5 -4 11
-2 13 5 7 18 20 15 26 -7 6 -25 -2 -34 -19 -20 -19 16 -45 4 -37 -17 5 -14 3
-16 -13 -9 -10 4 -33 10 -50 12 -26 4 -35 12 -47 45 -9 21 -14 45 -11 53 3 7
1 16 -5 19 -6 4 -7 14 -4 23 4 11 12 1 25 -33 19 -46 44 -84 57 -84 3 0 7 12
8 28 1 15 3 41 5 57 3 25 -1 30 -18 29 -17 0 -25 9 -33 37 -6 21 -21 45 -33
53 -18 13 -20 21 -14 70 8 59 19 66 29 19z m-439 -32 c4 -5 0 -11 -6 -14 -10
-3 -9 -15 5 -54 17 -47 15 -83 -4 -83 -12 0 -11 14 1 26 11 11 3 44 -11 44 -4
0 -11 16 -15 36 -6 31 -9 35 -30 30 -13 -4 -24 -2 -24 3 0 8 16 13 67 20 6 0
14 -3 17 -8z m54 -57 c-10 -10 -28 6 -28 24 0 15 1 15 17 -1 9 -9 14 -19 11
-23z m-388 -84 c0 -5 -8 -10 -17 -10 -15 0 -16 2 -3 10 19 12 20 12 20 0z
m700 -15 c0 -8 -7 -15 -15 -15 -8 0 -15 7 -15 15 0 8 7 15 15 15 8 0 15 -7 15
-15z m-76 -57 c5 -22 3 -25 -14 -21 -14 4 -18 12 -16 27 3 11 5 28 6 36 0 13
2 13 9 0 5 -8 11 -27 15 -42z m-602 -40 c-15 -15 -27 14 -17 40 6 15 8 15 18
-6 7 -16 7 -26 -1 -34z m-252 27 c0 -8 -4 -15 -8 -15 -5 0 -9 7 -9 15 0 8 4
15 9 15 4 0 8 -7 8 -15z m45 5 c-3 -5 -12 -10 -18 -10 -7 0 -6 4 3 10 19 12
23 12 15 0z m882 2 c18 -11 35 -64 25 -74 -15 -15 -61 37 -55 62 6 22 11 24
30 12z m-751 -38 c-3 -8 6 -21 19 -30 20 -13 23 -20 14 -35 -8 -16 -18 -19
-57 -15 -26 3 -51 5 -57 6 -5 0 -3 5 5 10 12 8 10 10 -10 10 -22 1 -23 2 -7
11 9 5 17 17 17 25 0 11 8 14 28 12 21 -2 26 1 24 14 -2 13 2 16 13 12 9 -4
14 -13 11 -20z m601 -1 c3 -9 -8 -10 -35 -4 -2 1 0 6 3 12 8 12 27 7 32 -8z
m-784 -10 c-16 -6 -17 -23 -2 -23 6 0 17 -7 25 -15 14 -13 10 -15 -30 -15 -44
0 -59 11 -35 25 6 4 8 13 5 21 -4 10 2 14 22 13 15 0 21 -3 15 -6z m336 -101
c-25 -10 -58 10 -68 39 -14 40 -14 39 4 39 8 0 15 6 15 13 0 6 13 -10 29 -38
16 -27 25 -52 20 -53z m-269 78 c0 -13 -11 -13 -30 0 -12 8 -11 10 8 10 12 0
22 -4 22 -10z m1090 -25 c-7 -8 -16 -15 -21 -15 -5 0 -1 9 8 20 9 11 19 17 21
15 3 -3 -1 -11 -8 -20z"/>
<path d="M9905 7487 c4 -23 8 -53 10 -67 7 -42 15 -150 20 -257 5 -110 24
-176 74 -255 41 -65 59 -85 121 -132 142 -109 342 -164 695 -192 39 -3 703 -7
1477 -8 1033 -3 1410 0 1416 8 5 6 10 18 10 26 6 182 14 433 14 460 1 60 -13
406 -17 426 -2 11 -4 22 -4 26 -1 7 -681 10 -681 3 0 -2 37 -25 83 -51 151
-88 296 -207 385 -317 56 -69 148 -242 165 -309 7 -26 7 -26 -57 -27 l-64 -1
-36 76 c-74 156 -203 307 -341 399 -154 102 -365 178 -582 211 -21 3 -49 8
-63 11 -14 4 -611 8 -1328 9 l-1304 3 7 -42z"/>
<path d="M9922 6747 c-1 -18 -4 -42 -6 -53 -2 -12 -7 -45 -11 -75 -8 -70 -71
-356 -90 -410 -8 -23 -15 -47 -15 -54 0 -8 96 -68 213 -136 116 -67 280 -161
363 -210 83 -48 169 -98 190 -110 46 -25 704 -405 921 -530 83 -49 169 -98
190 -110 21 -12 79 -45 128 -74 50 -29 106 -62 125 -73 19 -11 91 -52 160 -92
69 -40 143 -83 165 -95 22 -13 81 -46 130 -75 50 -29 104 -60 120 -70 167 -96
277 -159 428 -247 98 -57 182 -101 187 -98 23 14 245 577 300 760 10 33 30 98
44 145 15 47 28 94 31 105 2 11 14 54 25 95 11 41 23 84 25 95 2 11 9 38 14
60 13 55 41 176 45 200 2 11 12 61 21 110 9 50 18 99 20 110 8 42 17 101 21
135 3 19 7 46 9 60 3 14 7 50 11 80 3 30 8 63 10 73 2 10 6 55 10 100 l6 82
-1438 0 c-792 1 -1477 4 -1524 8 -139 12 -194 18 -220 22 -14 3 -45 8 -70 11
-76 11 -211 53 -290 92 -55 27 -98 59 -159 120 -46 45 -85 82 -86 82 0 0 -2
-15 -3 -33z"/>
<path d="M312 6442 c-19 -3 -22 -8 -17 -35 5 -32 14 -107 20 -162 2 -26 16
-129 31 -235 10 -66 33 -195 43 -240 5 -25 13 -61 16 -80 3 -19 8 -42 10 -50
2 -8 6 -26 9 -40 4 -22 22 -101 31 -140 3 -8 11 -44 20 -80 47 -194 169 -569
255 -785 71 -178 153 -365 161 -365 4 0 40 20 80 44 41 24 225 130 409 236
184 106 450 260 590 341 734 424 1029 594 1070 617 25 13 50 28 55 32 32 24
300 168 399 215 352 168 568 204 779 130 26 -10 50 -15 52 -13 3 2 -16 56 -41
119 -39 95 -117 334 -128 389 -14 72 -20 91 -29 97 -10 6 -3770 11 -3815 5z"/>
<path d="M9716 5937 c-26 -64 -101 -221 -148 -312 -24 -46 -40 -157 -33 -229
29 -282 280 -524 915 -883 19 -11 87 -51 150 -88 63 -37 129 -75 145 -85 17
-9 113 -65 215 -125 102 -59 210 -121 240 -138 30 -16 66 -38 80 -47 14 -9 50
-30 80 -47 30 -17 111 -63 180 -103 68 -40 138 -81 155 -90 16 -9 149 -86 295
-170 146 -84 279 -161 295 -170 137 -78 264 -149 281 -158 20 -10 26 -4 76 71
112 166 264 431 383 666 30 59 35 75 24 82 -8 6 -61 37 -119 70 -58 33 -112
64 -120 69 -76 46 -153 90 -156 90 -3 0 -23 12 -47 27 -23 14 -66 40 -95 56
l-53 29 31 -54 c154 -264 212 -457 205 -683 -2 -66 -6 -129 -9 -140 -2 -11 -5
-30 -5 -42 -1 -21 -3 -20 -66 14 -38 22 -61 41 -57 47 10 17 11 238 1 292 -5
27 -11 58 -13 69 -25 136 -107 300 -222 445 -91 116 -338 333 -432 381 -15 7
-44 24 -65 37 -21 13 -54 32 -73 43 -80 45 -104 59 -199 114 -55 32 -113 66
-130 75 -16 10 -118 68 -225 130 -107 62 -211 122 -230 133 -19 11 -91 52
-160 92 -199 116 -431 250 -480 277 -25 14 -110 63 -190 110 -283 165 -377
218 -386 218 -5 0 -22 -33 -38 -73z"/>
<path d="M4005 5733 c-96 -10 -262 -59 -400 -116 -122 -51 -327 -163 -825
-450 -19 -11 -64 -37 -100 -57 -36 -20 -87 -50 -115 -66 -27 -17 -57 -33 -65
-37 -8 -5 -24 -13 -35 -20 -11 -7 -56 -33 -100 -58 -44 -25 -125 -72 -180
-104 -55 -31 -116 -66 -135 -77 -19 -11 -218 -127 -443 -257 -224 -130 -415
-240 -425 -246 -133 -76 -232 -138 -232 -145 0 -41 278 -533 422 -748 l49 -73
32 19 c18 11 147 86 287 167 140 80 259 151 265 156 5 5 -36 9 -110 10 -66 0
-127 2 -135 3 -8 2 -40 6 -70 9 -55 6 -197 39 -235 55 -129 53 -345 186 -345
212 0 4 24 22 54 39 l54 30 89 -59 c136 -90 241 -130 408 -153 122 -17 267
-12 380 13 22 5 51 11 65 14 87 18 287 89 380 136 48 23 106 57 270 152 19 11
141 81 270 156 129 74 330 190 445 257 116 67 318 184 450 260 610 352 741
428 749 435 5 5 2 16 -8 25 -9 9 -30 38 -48 63 -17 26 -35 49 -39 52 -3 3 -43
60 -87 128 -84 129 -134 178 -227 224 -82 41 -207 62 -310 51z"/>
<path d="M9318 5252 c-88 -113 -162 -195 -272 -303 l-79 -77 25 -44 c13 -24
76 -133 140 -243 63 -110 124 -216 135 -235 11 -19 49 -84 85 -145 35 -60 67
-117 71 -125 4 -8 17 -31 28 -50 12 -19 155 -267 319 -550 164 -283 330 -571
370 -640 40 -69 84 -145 98 -170 13 -25 55 -97 92 -160 37 -63 77 -131 88
-151 11 -20 114 -198 228 -395 114 -198 214 -371 221 -386 8 -16 17 -28 21
-28 9 0 305 226 412 314 317 264 624 572 892 893 96 115 318 406 318 417 0 3
-5 6 -10 6 -6 0 -27 11 -48 23 -20 13 -57 35 -82 49 -96 54 -133 75 -375 216
-137 80 -268 155 -291 168 -23 13 -225 130 -450 260 -225 130 -467 270 -539
311 -71 41 -137 79 -145 84 -19 11 -304 175 -350 201 -136 77 -365 229 -470
313 -191 153 -312 328 -335 488 -4 26 -10 49 -14 52 -4 2 -41 -40 -83 -93z"/>
<path d="M4794 5072 c-16 -8 -306 -175 -644 -370 -338 -195 -687 -397 -775
-447 -88 -51 -248 -143 -355 -205 -160 -93 -547 -316 -675 -390 -16 -10 -57
-33 -90 -52 -281 -162 -409 -236 -525 -304 -74 -43 -156 -90 -182 -104 -26
-14 -48 -27 -48 -30 0 -5 144 -202 198 -270 241 -307 583 -669 857 -907 33
-28 71 -61 85 -73 56 -50 311 -250 390 -308 93 -67 92 -67 128 -2 18 33 222
387 340 590 65 112 238 412 262 455 10 17 118 203 240 415 123 212 231 399
240 415 249 439 358 613 483 779 165 218 321 334 498 372 43 10 79 20 79 23
-1 3 -38 34 -83 68 -104 78 -177 143 -298 264 l-96 96 -29 -15z"/>
<path d="M8834 4762 c-32 -30 -192 -143 -278 -197 -192 -121 -269 -327 -220
-589 15 -76 68 -241 106 -326 57 -129 225 -443 288 -540 5 -8 18 -32 27 -52
10 -21 21 -38 25 -38 5 0 8 -4 8 -10 0 -5 18 -39 40 -75 22 -36 40 -67 40 -69
0 -1 39 -70 86 -152 48 -82 97 -167 109 -189 25 -46 162 -283 210 -365 18 -30
44 -75 58 -100 13 -25 40 -72 59 -105 19 -33 53 -91 75 -130 22 -38 51 -88 64
-111 139 -239 196 -337 204 -353 6 -10 57 -97 114 -193 l104 -176 131 68 c132
67 153 79 281 152 98 56 152 90 291 180 l122 79 -112 192 c-62 106 -138 238
-170 295 -32 56 -60 101 -62 99 -2 -2 -6 -66 -8 -143 -5 -159 -30 -301 -74
-419 -36 -98 -72 -164 -147 -268 l-58 -80 -33 59 c-38 67 -38 68 -21 86 86 94
176 307 198 473 11 85 8 270 -6 340 -55 279 -111 410 -362 843 -113 196 -214
371 -223 387 -29 50 -166 288 -283 490 -97 167 -268 464 -317 550 -10 17 -44
75 -76 130 -31 55 -63 109 -69 120 -39 73 -90 155 -95 155 -4 0 -15 -8 -26
-18z"/>
<path d="M5300 4513 c-87 -17 -133 -37 -211 -88 -72 -49 -204 -178 -274 -270
-25 -33 -52 -68 -60 -78 -8 -9 -15 -21 -15 -26 0 -5 -4 -11 -8 -13 -16 -6
-122 -179 -369 -603 -210 -361 -793 -1367 -861 -1485 -11 -19 -75 -132 -142
-250 -67 -118 -124 -218 -126 -222 -8 -13 299 -209 491 -313 174 -94 313 -165
323 -165 6 0 57 80 113 178 56 97 133 230 171 295 37 64 66 117 63 117 -2 0
-51 -26 -108 -58 -156 -87 -317 -145 -462 -167 -44 -7 -219 -8 -250 -2 -11 3
-41 7 -67 11 l-47 7 36 59 c33 55 37 59 66 55 50 -7 218 -7 262 0 315 49 561
214 832 560 21 28 82 124 135 215 52 91 135 233 182 315 48 83 91 157 96 165
20 32 378 657 396 690 11 19 38 67 61 105 50 84 286 492 321 555 14 25 47 81
72 125 l48 79 -107 46 c-58 26 -156 72 -217 103 -62 32 -129 60 -150 62 -83
12 -132 11 -194 -2z"/>
<path d="M8145 4349 c-99 -42 -334 -121 -401 -135 -6 -1 -20 -4 -30 -7 -11 -3
-38 -11 -61 -17 l-42 -10 0 -1919 1 -1919 31 3 c18 2 59 6 92 10 66 7 83 9
200 25 153 21 200 29 440 75 17 3 86 19 155 36 156 38 160 39 187 45 121 25
560 169 762 250 112 45 338 142 349 150 2 1 -29 58 -69 126 -39 67 -80 137
-89 154 -10 16 -51 88 -92 160 -41 71 -119 206 -173 299 -54 94 -132 229 -173
300 -41 72 -109 189 -150 260 -42 72 -116 200 -165 285 -49 85 -101 175 -115
200 -13 25 -28 50 -32 55 -4 6 -19 30 -32 55 -14 25 -83 144 -153 265 -400
689 -477 962 -359 1270 8 21 0 19 -81 -16z"/>
<path d="M6056 4193 c-22 -37 -71 -122 -108 -188 -38 -66 -73 -127 -78 -135
-38 -65 -298 -514 -350 -605 -10 -16 -68 -118 -130 -225 -62 -107 -121 -208
-130 -225 -28 -50 -125 -217 -157 -271 -17 -27 -42 -71 -56 -96 -14 -25 -76
-132 -137 -239 -62 -107 -124 -214 -138 -239 -14 -25 -55 -97 -92 -160 -37
-63 -111 -190 -164 -282 -53 -93 -140 -243 -193 -335 -113 -195 -145 -254
-141 -258 6 -6 199 -89 318 -137 216 -87 462 -172 635 -219 39 -10 104 -28
145 -40 41 -11 86 -22 100 -25 14 -3 39 -9 55 -14 17 -5 41 -11 55 -14 14 -3
90 -18 170 -35 80 -16 162 -32 182 -35 21 -3 75 -12 120 -20 46 -8 112 -17
148 -21 36 -4 74 -9 85 -11 11 -2 52 -7 90 -10 39 -3 78 -7 88 -10 13 -4 17 1
17 23 1 15 3 678 4 1473 2 795 6 1461 9 1480 3 19 8 71 12 115 4 44 13 114 22
155 8 41 16 84 18 95 6 44 55 167 91 232 22 40 68 97 111 139 l73 72 -33 6
c-17 3 -54 8 -82 11 -27 4 -57 8 -65 10 -8 2 -37 7 -64 11 -41 5 -304 68 -371
89 -17 5 -27 -5 -59 -62z"/>
<path d="M7425 4149 c-63 -11 -150 -19 -285 -25 -103 -5 -137 -11 -192 -33
-219 -86 -341 -286 -388 -631 -6 -41 -13 -88 -16 -105 -2 -16 -7 -109 -11
-205 -8 -214 -10 -2806 -3 -2814 16 -15 599 -24 785 -12 33 2 84 4 113 5 l52
1 0 348 -1 347 -32 -54 c-189 -319 -380 -494 -639 -587 l-38 -13 0 67 1 67 77
37 c142 68 272 170 347 273 17 22 32 42 36 45 13 12 81 132 108 193 49 109 97
273 116 402 4 22 9 51 12 65 9 38 15 2622 6 2630 -4 4 -26 3 -48 -1z"/>
</g>
</svg>
